<svg width="28" height="29" viewBox="0 0 28 29" fill="none" xmlns="http://www.w3.org/2000/svg">
<path d="M14.002 0.333252C6.27395 0.333252 0.00195312 6.60525 0.00195312 14.3333C0.00195312 22.0613 6.27395 28.3333 14.002 28.3333C21.702 28.3333 28.002 22.0613 28.002 14.3333C28.002 6.60525 21.702 0.333252 14.002 0.333252ZM23.242 6.77325C24.922 8.81725 25.902 11.3933 25.958 14.2213C25.566 14.1373 21.618 13.3533 17.642 13.8293C17.558 13.6333 17.474 13.4093 17.39 13.2133C17.138 12.6253 16.886 12.0373 16.606 11.4773C20.974 9.71325 22.99 7.10925 23.242 6.77325ZM14.002 2.40525C17.026 2.40525 19.826 3.55325 21.926 5.40125C21.702 5.70925 19.91 8.11725 15.654 9.71325C13.694 6.10125 11.51 3.16125 11.202 2.71325C12.098 2.51725 13.022 2.40525 14.002 2.40525ZM8.90595 3.52525C9.21395 3.94525 11.342 6.91325 13.33 10.4413C7.72995 11.9253 2.80195 11.8973 2.26995 11.8973C3.08195 8.17325 5.57395 5.09325 8.90595 3.52525ZM2.04595 14.3613C2.04595 14.2493 2.04595 14.1093 2.04595 13.9973C2.54995 14.0253 8.37395 14.0813 14.338 12.2893C14.674 12.9613 15.01 13.6333 15.318 14.3333C15.178 14.3893 15.01 14.4173 14.842 14.4733C8.68195 16.4613 5.40595 21.8933 5.12595 22.3413C3.19395 20.2133 2.04595 17.4133 2.04595 14.3613ZM14.002 26.2893C11.23 26.2893 8.68195 25.3373 6.66595 23.7693C6.88995 23.3213 9.29795 18.6453 16.046 16.2933C16.074 16.2653 16.102 16.2653 16.13 16.2653C17.81 20.6333 18.51 24.2733 18.678 25.3373C17.25 25.9533 15.654 26.2893 14.002 26.2893ZM20.666 24.2453C20.554 23.5173 19.91 20.0173 18.342 15.7333C22.094 15.1453 25.37 16.1253 25.79 16.2373C25.258 19.5693 23.354 22.4533 20.666 24.2453Z" fill="#03040A"/>
</svg>
