<svg width="28" height="28" viewBox="0 0 28 28" fill="none" xmlns="http://www.w3.org/2000/svg">
<path fill-rule="evenodd" clip-rule="evenodd" d="M13.9591 0.00256348C6.25272 0.00256348 0.00195312 6.25333 0.00195312 13.9597C0.00195312 20.1249 4.02642 25.3481 9.50654 27.2319C10.1916 27.3175 10.4484 26.8894 10.4484 26.5469C10.4484 26.2044 10.4484 25.3481 10.4484 24.1494C6.59523 25.0056 5.73896 22.2656 5.73896 22.2656C5.13957 20.6386 4.19767 20.2105 4.19767 20.2105C2.91327 19.3542 4.2833 19.3542 4.2833 19.3542C5.65333 19.4399 6.42397 20.8099 6.42397 20.8099C7.70838 22.9506 9.67779 22.3512 10.4484 22.0087C10.5341 21.0668 10.9622 20.4674 11.3047 20.1249C8.22214 19.7824 4.96831 18.5836 4.96831 13.1891C4.96831 11.6478 5.48208 10.449 6.42397 9.42152C6.33834 9.16464 5.82458 7.70899 6.59523 5.82519C6.59523 5.82519 7.794 5.48269 10.4484 7.28085C11.5616 6.93834 12.7604 6.85272 13.9591 6.85272C15.1579 6.85272 16.3567 7.02397 17.4698 7.28085C20.1243 5.48269 21.3231 5.82519 21.3231 5.82519C22.0937 7.70899 21.5799 9.16464 21.4943 9.50715C22.3506 10.449 22.95 11.7334 22.95 13.2747C22.95 18.6692 19.6961 19.7824 16.6136 20.1249C17.1273 20.553 17.5555 21.4093 17.5555 22.6937C17.5555 24.5775 17.5555 26.0331 17.5555 26.5469C17.5555 26.8894 17.8124 27.3175 18.4974 27.2319C24.0631 25.3481 28.002 20.1249 28.002 13.9597C27.9163 6.25333 21.6656 0.00256348 13.9591 0.00256348Z" fill="#03040A"/>
</svg>
