<svg width="28" height="28" viewBox="0 0 28 28" fill="none" xmlns="http://www.w3.org/2000/svg">
<path d="M6.30196 27.9999H0.351948V9.27488H6.30196V27.9999ZM3.32696 6.64988C1.40196 6.64988 0.00195312 5.24988 0.00195312 3.32488C0.00195312 1.39988 1.57696 -0.00012207 3.32696 -0.00012207C5.25196 -0.00012207 6.65196 1.39988 6.65196 3.32488C6.65196 5.24988 5.25196 6.64988 3.32696 6.64988ZM28.002 27.9999H22.052V17.8499C22.052 14.8749 20.8269 13.9999 19.0769 13.9999C17.3269 13.9999 15.5769 15.3999 15.5769 18.0249V27.9999H9.62695V9.27488H15.2269V11.8999C15.7519 10.6749 17.8519 8.74988 20.8269 8.74988C24.1519 8.74988 27.652 10.6749 27.652 16.4499V27.9999H28.002Z" fill="#03040A"/>
</svg>
